<?xml version="1.0" encoding="UTF-8" standalone="no"?>
<svg
   xmlns:dc="http://purl.org/dc/elements/1.1/"
   xmlns:cc="http://creativecommons.org/ns#"
   xmlns:rdf="http://www.w3.org/1999/02/22-rdf-syntax-ns#"
   xmlns:svg="http://www.w3.org/2000/svg"
   xmlns="http://www.w3.org/2000/svg"
   xmlns:sodipodi="http://sodipodi.sourceforge.net/DTD/sodipodi-0.dtd"
   xmlns:inkscape="http://www.inkscape.org/namespaces/inkscape"
   width="200.01868mm"
   height="245.69359mm"
   viewBox="0 0 200.01868 245.69359"
   version="1.1"
   id="svg869"
   inkscape:version="1.0.1 (3bc2e813f5, 2020-09-07)"
   sodipodi:docname="guyane.svg">
  <defs
     id="defs863" />
  <sodipodi:namedview
     id="base"
     pagecolor="#ffffff"
     bordercolor="#666666"
     borderopacity="1.0"
     inkscape:pageopacity="0.0"
     inkscape:pageshadow="2"
     inkscape:zoom="0.35"
     inkscape:cx="300.85713"
     inkscape:cy="478.89124"
     inkscape:document-units="mm"
     inkscape:current-layer="layer1"
     inkscape:document-rotation="0"
     showgrid="false"
     inkscape:window-width="1920"
     inkscape:window-height="1017"
     inkscape:window-x="-8"
     inkscape:window-y="-8"
     inkscape:window-maximized="1" />
  <metadata
     id="metadata866">
    <rdf:RDF>
      <cc:Work
         rdf:about="">
        <dc:format>image/svg+xml</dc:format>
        <dc:type
           rdf:resource="http://purl.org/dc/dcmitype/StillImage" />
        <dc:title></dc:title>
      </cc:Work>
    </rdf:RDF>
  </metadata>
  <g
     inkscape:label="Calque 1"
     inkscape:groupmode="layer"
     id="layer1"
     transform="translate(-26.23155,-21.460027)">
    <path
       style="fill:#3025AE;stroke-width:0.264583"
       d="m 56.80192,266.16138 c -0.48199,-0.5457 -1.17414,-1.34564 -1.53813,-1.77768 l -0.6618,-0.78549 -1.81595,0.50225 c -1.9836,0.54862 -4.68095,0.62098 -6.3267,0.16971 -0.57502,-0.15769 -1.46222,-0.68001 -1.97154,-1.16073 -1.48127,-1.39808 -2.13136,-1.76054 -2.88671,-1.60946 -0.38331,0.0767 -1.2827,-0.0917 -2.01207,-0.37655 -0.72541,-0.28335 -2.01305,-0.60005 -2.86142,-0.7038 -1.34187,-0.16406 -1.72042,-0.34951 -2.91042,-1.42592 -0.75236,-0.68053 -1.75488,-1.51233 -2.22782,-1.84843 -1.00222,-0.7122 -1.10129,-1.24396 -0.27217,-1.46076 0.58361,-0.15261 0.58233,-0.15933 -0.18244,-0.95758 -1.01034,-1.05458 -2.71248,-1.86087 -3.9284,-1.86087 -0.53615,0 -0.9748,-0.10848 -0.9748,-0.24106 0,-0.47511 1.65612,-1.64137 2.08756,-1.47011 0.23429,0.093 1.05311,0.30295 1.8196,0.46654 1.32479,0.28276 1.42441,0.2653 2.01703,-0.35345 0.34289,-0.35798 0.95409,-1.51186 1.35823,-2.56419 0.40415,-1.0523 0.9586,-2.11582 1.23213,-2.36336 0.29362,-0.26572 1.22551,-0.53541 2.27523,-0.65844 l 1.77793,-0.20839 2.24895,-2.326 c 2.21023,-2.28595 2.27147,-2.38522 3.55592,-5.76263 1.96958,-5.17895 3.59075,-8.23147 6.24258,-11.75418 2.30824,-3.06628 2.80283,-3.93587 3.81107,-6.70056 0.25268,-0.69289 0.69357,-1.3851 0.97974,-1.53826 0.50312,-0.26926 0.49798,-0.29604 -0.15532,-0.80993 -0.8938,-0.70307 -0.86545,-1.58605 0.11036,-3.43723 0.43168,-0.81893 0.86052,-1.96201 0.95297,-2.54017 0.14432,-0.90253 0.0707,-1.14864 -0.52086,-1.74016 -0.7816,-0.78159 -0.89765,-1.63464 -0.25589,-1.88091 0.6066,-0.23277 0.31696,-2.76372 -0.38185,-3.33671 -0.49373,-0.40485 -0.71144,-1.42845 -0.24212,-1.13839 0.74663,0.46145 0.99513,-2.42249 0.30012,-3.4832 -0.34283,-0.52323 -0.56701,-0.61151 -1.22087,-0.48074 -0.74726,0.14946 -0.78809,0.11768 -0.60938,-0.47425 0.48212,-1.59688 1.83853,-4.0228 3.2526,-5.8172 0.84994,-1.07854 1.88455,-2.50931 2.29913,-3.17949 0.41459,-0.67018 1.27611,-1.56315 1.9145,-1.98438 1.31226,-0.86586 2.0936,-2.15754 2.4537,-4.05637 0.19138,-1.00913 0.51834,-1.57721 1.47332,-2.55981 0.67505,-0.69457 1.51307,-1.90889 1.86227,-2.69849 0.57477,-1.29966 0.62027,-1.67702 0.48047,-3.98404 -0.11578,-1.91051 -0.0433,-3.01199 0.28953,-4.40048 0.81474,-3.3989 0.81166,-3.78107 -0.0378,-4.67256 -0.75171,-0.78895 -1.42818,-0.88269 -2.74174,-0.37994 -0.59003,0.22583 -2.21953,-2.72673 -2.90135,-5.25709 -0.38074,-1.41301 -0.8546,-2.45929 -1.43796,-3.175 -0.47855,-0.58712 -1.00307,-1.31898 -1.1656,-1.62635 -0.19335,-0.36564 -0.93195,-0.76349 -2.13638,-1.15077 -1.91758,-0.61658 -2.57955,-1.13546 -3.32204,-2.60393 -0.5012,-0.99125 -1.17787,-1.72808 -1.98244,-2.15867 -0.30273,-0.16202 -0.89628,-0.9747 -1.319,-1.80597 -0.42271,-0.83126 -1.1934,-1.91911 -1.71263,-2.41743 -0.5615,-0.5389 -1.12288,-1.45023 -1.38534,-2.24896 -0.30958,-0.94215 -0.94303,-1.87737 -2.1226,-3.13381 -1.52815,-1.62775 -1.68132,-1.89476 -1.68132,-2.93095 0,-0.62703 0.29765,-1.87259 0.66145,-2.76791 1.14533,-2.81868 0.77555,-4.01364 -1.40383,-4.53646 -1.41177,-0.33868 -2.6063,-1.27777 -2.84743,-2.23853 -0.0955,-0.3804 0.0579,-1.0429 0.39381,-1.70139 0.99875,-1.95772 0.58117,-5.03121 -1.15088,-8.4706 -0.70384,-1.39763 -1.03935,-2.58576 -1.45861,-5.16527 -0.73831,-4.54248 -0.71096,-5.33337 0.24444,-7.06666 0.70535,-1.27965 0.78947,-1.67758 0.79375,-3.75494 0.003,-1.512897 -0.13867,-2.666809 -0.4064,-3.307289 -0.2825,-0.67583 -0.38927,-1.64613 -0.34114,-3.10036 0.0827,-2.49802 -0.15322,-3.03872 -1.61284,-3.69691 -0.83451,-0.37632 -1.08185,-0.63799 -1.10776,-1.17192 -0.0183,-0.37808 -0.0515,-2.47336 -0.0736,-4.65617 -0.0222,-2.18281 -0.13961,-4.45775 -0.261,-5.05541 -0.21837,-1.075172 -0.2078,-1.095933 0.99969,-1.963081 1.3441,-0.965267 1.38793,-1.134343 0.90279,-3.483145 -0.49119,-2.378078 0.12522,-3.678346 3.59746,-7.58862 0.95269,-1.072873 1.80436,-2.203966 1.89261,-2.513542 0.0882,-0.309576 0.57163,-0.92319 1.0742,-1.363583 0.64317,-0.563613 1.02148,-1.20908 1.27755,-2.179805 0.4463,-1.691862 1.70597,-3.446319 4.05214,-5.643819 0.9818,-0.919583 1.75238,-1.775163 1.71239,-1.901293 -0.04,-0.12613 0.0469,-0.155406 0.19308,-0.06506 0.31027,0.191754 2.79673,-1.556599 4.50983,-3.171079 0.65485,-0.617143 1.48828,-1.192178 1.85209,-1.277855 1.10694,-0.260691 3.27192,-1.815201 4.57585,-3.285593 1.39886,-1.577438 1.64278,-2.006383 2.81939,-4.95811 0.46406,-1.164166 1.20507,-2.748216 1.64669,-3.520109 0.65481,-1.144535 0.91357,-2.120744 1.40264,-5.291667 0.59109,-3.832383 0.88046,-4.657894 2.52228,-7.195516 0.14122,-0.218281 0.49696,-0.840218 0.79053,-1.382085 0.4552,-0.840213 0.64057,-0.967404 1.25954,-0.864238 0.39918,0.06654 1.66103,0.252032 2.80411,0.412219 1.14307,0.160186 2.86948,0.580604 3.83646,0.934259 1.11242,0.40685 1.5695,0.495827 1.24454,0.242261 -0.28247,-0.220412 -0.6099,-0.400749 -0.7276,-0.400749 -0.11771,0 -0.21402,-0.12133 -0.21402,-0.269624 0,-0.6972 2.30144,0.342636 6.21109,2.806312 1.63934,1.033023 4.21887,2.30083 6.7535,3.31925 2.25557,0.906296 5.05469,2.195357 6.22026,2.864578 3.12517,1.794349 5.48985,2.536603 7.72435,2.42461 0.61178,-0.03066 2.85019,0.369499 4.97424,0.889246 2.12406,0.519748 4.2666,0.917742 4.76122,0.884431 0.54791,-0.0369 1.09385,0.115509 1.39723,0.390062 0.27386,0.247843 0.59665,0.361066 0.71732,0.251608 0.12066,-0.109458 0.14539,-0.06905 0.055,0.08979 -0.0904,0.158842 0.23039,0.671465 0.71292,1.139158 0.70467,0.682987 1.01509,0.815782 1.57721,0.674698 0.71006,-0.178213 0.99168,-0.912037 0.35001,-0.912037 -0.19242,0 -1.11515,-0.534498 -2.05052,-1.18777 -0.93537,-0.653275 -1.96153,-1.189056 -2.28037,-1.190625 -0.77727,-0.0038 -1.00734,-0.442849 -0.40188,-0.766882 0.36854,-0.197239 0.87372,-0.07807 2.05793,0.485444 0.86322,0.410769 2.40292,1.003231 3.42157,1.316583 3.07553,0.946078 4.9565,1.783363 6.83259,3.041417 0.98161,0.658241 2.28662,1.339395 2.90003,1.513676 0.61341,0.174281 1.23436,0.351666 1.37988,0.394187 1.5259,0.445865 2.23963,0.530794 2.47582,0.294605 0.33452,-0.334523 1.75855,0.21385 4.31031,1.65984 1.02402,0.580271 1.99965,0.97621 2.16807,0.879864 0.16842,-0.09635 0.21852,-0.07831 0.11133,0.04008 -0.10719,0.118391 0.13622,0.4649 0.5409,0.770022 0.40468,0.305123 1.6036,1.388206 2.66427,2.406852 1.06066,1.018645 2.65561,2.241915 3.54433,2.718376 1.36104,0.729687 1.75585,1.114722 2.50365,2.441676 0.61084,1.083908 1.47397,2.051786 2.76674,3.102457 3.40659,2.768655 4.29061,3.54548 6.6156,5.813427 1.4511,1.415492 2.41906,2.171621 2.62057,2.047082 0.18285,-0.113007 0.25091,-0.08644 0.1591,0.0621 -0.17821,0.288359 2.78293,3.293912 3.71234,3.768011 0.38416,0.195963 0.56934,0.507333 0.52917,0.889786 -0.0494,0.470611 0.0598,0.575286 0.54588,0.523118 0.64275,-0.06898 2.64747,0.839078 3.0956,1.402183 0.14602,0.183475 1.27751,1.194821 2.51444,2.247434 1.29905,1.105483 2.56215,2.451114 2.99046,3.185867 0.67941,1.165497 0.71673,1.364043 0.44563,2.370815 -0.16273,0.604335 -0.23386,1.160803 -0.15806,1.236603 0.16313,0.16312 1.33394,-1.005381 2.31244,-2.307893 0.64133,-0.853686 0.80149,-0.924534 2.04983,-0.90673 1.60131,0.02283 2.97085,0.956998 3.82992,2.612383 l 0.52726,1.016 -0.74626,1.35115 c -0.41043,0.74313 -1.16625,1.87297 -1.67959,2.51074 -0.51334,0.63777 -1.48088,2.07059 -2.15008,3.18405 -1.09943,1.82927 -1.20601,2.15114 -1.10545,3.33833 0.10559,1.24663 0.12641,1.27786 0.40677,0.61022 0.16252,-0.387 0.49001,-0.92278 0.72776,-1.19062 0.23775,-0.26784 0.6279,-1.25927 0.86699,-2.20317 0.5697,-2.24907 0.92459,-2.74288 2.87816,-4.00494 0.90008,-0.58148 1.78914,-1.34781 1.97569,-1.70295 0.42219,-0.80375 0.54653,-0.80252 1.75458,0.0173 1.33257,0.90431 2.15433,1.87996 2.84809,3.38149 0.51711,1.1192 0.85343,1.4199 2.89438,2.58785 3.06901,1.75626 4.94844,3.34304 7.01093,5.91924 1.80277,2.25181 2.50595,3.90868 2.8702,6.763012 0.10213,0.800357 0.52417,2.530197 0.93785,3.844077 0.97913,3.10978 1.21497,5.24041 0.78014,7.04793 -0.18671,0.77611 -0.33987,1.5547 -0.34036,1.7302 -5.3e-4,0.1755 -0.10893,0.25233 -0.24096,0.17072 -0.33171,-0.205 -1.54629,0.97957 -1.34249,1.30933 0.0933,0.151 0.0333,0.18558 -0.13823,0.0796 -0.39499,-0.24412 -2.49426,1.20577 -3.21854,2.22293 -0.31062,0.43622 -0.52689,0.7916 -0.4806,0.78972 0.45966,-0.0187 3.64944,-1.17674 4.68123,-1.69958 1.59129,-0.80637 2.00634,-1.35579 2.69003,-3.5609 0.49247,-1.58838 0.50687,-1.98547 0.23513,-6.4823 -0.33929,-5.614677 -0.20142,-7.373007 0.70528,-8.995279 1.36835,-2.44826 3.44983,-2.1939 6.54556,0.79987 1.38015,1.334702 1.77503,1.876862 1.66723,2.289082 -0.17608,0.67333 0.28634,1.590147 0.67948,1.347177 0.1817,-0.11229 0.2169,-0.0588 0.0931,0.14155 -0.1095,0.17718 -0.0188,0.523 0.20151,0.76849 0.59036,0.65777 1.17405,2.37622 1.33225,3.9223 0.19663,1.92167 0.80734,3.27092 1.4805,3.27092 0.64322,0 0.69524,0.45818 0.14168,1.24847 -0.35917,0.5128 -0.357,0.68231 0.0209,1.62663 0.37333,0.93304 0.54862,1.07509 1.52543,1.23612 0.60701,0.10007 1.25518,0.30435 1.44037,0.45397 0.4537,0.36655 0.15636,1.19829 -0.68805,1.92462 -0.58465,0.50289 -0.6881,0.80886 -0.6881,2.03523 0,1.34344 0.13139,1.64488 1.89785,4.35395 2.08682,3.2004 2.43269,4.22956 2.44242,7.26762 0.007,2.05474 -0.52583,4.29248 -1.64756,6.92481 -0.51617,1.21137 -0.67556,1.34059 -3.21484,2.60671 -3.04171,1.51662 -3.95601,2.27053 -4.64641,3.83129 -0.61553,1.39151 -1.45472,4.0844 -1.41545,4.54208 0.0164,0.1916 -0.03,0.2885 -0.10315,0.21533 -0.0732,-0.0732 -0.82864,0.72256 -1.67883,1.7683 -2.74476,3.37606 -4.06112,4.69537 -5.41126,5.4234 -1.32214,0.71294 -1.32294,0.71419 -1.36071,2.12594 -0.0432,1.61595 -0.25231,1.91879 -1.41839,2.05456 -1.40241,0.16329 -2.14421,1.31046 -2.6496,4.09753 -0.34308,1.89196 -0.74852,2.76871 -2.56513,5.54704 -0.70753,1.08209 -1.5121,2.48167 -1.78793,3.11016 -0.29585,0.67411 -0.80717,1.30078 -1.24686,1.52815 -0.59473,0.30755 -0.74534,0.56643 -0.74534,1.28121 0,0.90794 -0.29624,1.44039 -5.82409,10.46772 -1.20297,1.96453 -2.42667,3.99151 -2.71933,4.5044 -0.75392,1.32129 -1.68818,1.93614 -3.06517,2.01726 -1.44056,0.0849 -2.03106,0.64995 -2.95216,2.82511 -0.48226,1.13885 -0.94551,1.74624 -1.7733,2.32508 -0.61628,0.43094 -1.24136,1.00933 -1.38907,1.28532 -0.35211,0.65793 -0.33992,2.07257 0.0354,4.1096 l 0.30396,1.64966 -2.13898,3.9371 c -2.67596,4.9255 -2.74537,5.10552 -2.28734,5.93268 0.5704,1.0301 0.46249,1.51586 -0.37775,1.70041 -0.41611,0.0914 -1.07195,0.49535 -1.4574,0.89768 -0.81782,0.85362 -5.59698,11.3354 -6.22944,13.66257 -0.37406,1.37636 -0.56255,1.65788 -1.41726,2.11667 -1.15362,0.61923 -1.19836,0.95335 -0.31889,2.38125 0.7837,1.27242 0.82336,2.06249 0.15092,3.00685 -0.277,0.389 -0.83738,1.41942 -1.24529,2.28979 -0.40792,0.8704 -1.24749,2.31217 -1.86572,3.20397 -0.61824,0.89181 -1.04012,1.71455 -0.93753,1.82835 0.1026,0.1138 0.0425,0.12425 -0.13347,0.0233 -0.50717,-0.29112 -2.24904,1.48032 -3.08511,3.13751 -0.41761,0.82775 -1.14673,1.89246 -1.62028,2.36601 -1.08125,1.08125 -8.13043,5.32384 -10.54001,6.34355 -1.89804,0.80325 -2.78092,1.76035 -3.19654,3.46535 -0.28222,1.15777 -1.42245,2.24896 -2.34998,2.24896 -0.49862,0 -0.94813,0.22349 -1.26842,0.63069 -0.56664,0.72035 -1.82166,0.98925 -3.04315,0.65198 -0.45853,-0.12663 -1.68723,-0.33737 -2.73043,-0.46836 -1.61778,-0.20315 -2.07463,-0.38394 -3.10633,-1.22934 -1.67214,-1.37019 -2.66738,-1.41665 -7.99172,-0.37308 -3.68791,0.72284 -4.42061,0.79798 -4.96093,0.50882 -0.34868,-0.18661 -0.63396,-0.42217 -0.63396,-0.52348 0,-0.47813 1.17726,-1.59266 2.12302,-2.00994 0.57859,-0.25527 1.05198,-0.55178 1.05198,-0.65889 0,-0.26993 -0.44638,-0.69202 -2.4569,-2.32325 -0.95747,-0.77684 -2.28452,-2.11251 -2.94899,-2.96818 -0.6674,-0.85942 -1.4155,-1.55318 -1.67143,-1.55003 -0.25482,0.003 -1.06772,0.74729 -1.80646,1.65364 -1.02362,1.2559 -1.60394,1.72636 -2.43932,1.97747 -0.60289,0.18124 -1.89586,0.86585 -2.87327,1.52136 -1.25485,0.84158 -2.05422,1.19523 -2.72005,1.20338 -0.51863,0.006 -1.47873,0.12073 -2.13358,0.25421 -1.06992,0.21809 -1.35155,0.15957 -2.77812,-0.57722 -1.16053,-0.59938 -2.1568,-0.87863 -3.70417,-1.03822 -1.55201,-0.1601 -2.77308,-0.50327 -4.57729,-1.28641 -1.54074,-0.66878 -2.86257,-1.06807 -3.53576,-1.06807 -1.07069,0 -1.07445,-0.003 -0.90886,-0.85989 0.37799,-1.95482 0.37516,-2.19395 -0.0313,-2.64306 -1.04312,-1.15263 -3.28958,-0.211 -4.60783,1.93143 -0.82637,1.34303 -1.56136,1.83611 -2.73686,1.83611 -0.38538,0 -0.87675,0.32602 -1.29603,0.85989 -1.45603,1.85399 -1.45941,1.85605 -2.84202,1.72321 l -1.29226,-0.12425 v 0.90035 c 0,1.81703 -0.89918,2.80334 -3.29135,3.61027 -0.71884,0.24249 -1.58071,0.69802 -1.91526,1.01232 -0.55456,0.52099 -0.69688,0.54221 -1.6115,0.24037 -0.55177,-0.18211 -1.35324,-0.29091 -1.78104,-0.24177 -0.698,0.0801 -0.86802,0.30514 -1.6565,2.19202 -0.48327,1.15649 -1.0074,2.25782 -1.16474,2.44739 -0.16454,0.19828 -0.84252,0.3447 -1.59595,0.3447 -1.18146,0 -1.39579,-0.0973 -2.18621,-0.99219 z"
       id="region_guyane" />
  </g>
</svg>
