<?xml version="1.0" encoding="UTF-8" standalone="no"?>
<svg
   xmlns:dc="http://purl.org/dc/elements/1.1/"
   xmlns:cc="http://creativecommons.org/ns#"
   xmlns:rdf="http://www.w3.org/1999/02/22-rdf-syntax-ns#"
   xmlns:svg="http://www.w3.org/2000/svg"
   xmlns="http://www.w3.org/2000/svg"
   xmlns:sodipodi="http://sodipodi.sourceforge.net/DTD/sodipodi-0.dtd"
   xmlns:inkscape="http://www.inkscape.org/namespaces/inkscape"
   width="83.052925mm"
   height="73.643623mm"
   viewBox="0 0 83.052925 73.643623"
   version="1.1"
   id="svg8"
   inkscape:version="1.0.1 (3bc2e813f5, 2020-09-07)"
   sodipodi:docname="reunnion.svg">
  <defs
     id="defs2" />
  <sodipodi:namedview
     id="base"
     pagecolor="#ffffff"
     bordercolor="#666666"
     borderopacity="1.0"
     inkscape:pageopacity="0.0"
     inkscape:pageshadow="2"
     inkscape:zoom="0.35"
     inkscape:cx="242.34445"
     inkscape:cy="255.97824"
     inkscape:document-units="mm"
     inkscape:current-layer="layer1"
     inkscape:document-rotation="0"
     showgrid="false"
     inkscape:window-width="1438"
     inkscape:window-height="1040"
     inkscape:window-x="175"
     inkscape:window-y="0"
     inkscape:window-maximized="0" />
  <metadata
     id="metadata5">
    <rdf:RDF>
      <cc:Work
         rdf:about="">
        <dc:format>image/svg+xml</dc:format>
        <dc:type
           rdf:resource="http://purl.org/dc/dcmitype/StillImage" />
        <dc:title></dc:title>
      </cc:Work>
    </rdf:RDF>
  </metadata>
  <g
     inkscape:label="Calque 1"
     inkscape:groupmode="layer"
     id="layer1"
     transform="translate(-41.713031,-80.43909)">
    <path
       style="fill:#3025AE;stroke-width:0.264583"
       d="m 98.765179,153.91461 c -0.394666,-0.16644 -1.478365,-0.21397 -2.686815,-0.11783 -1.866704,0.1485 -2.084324,0.11206 -2.778125,-0.46512 -1.25698,-1.04571 -1.761456,-1.21736 -2.886319,-0.98211 -0.572796,0.11979 -1.755825,0.19034 -2.62895,0.15677 -1.356773,-0.0522 -1.63209,-0.14918 -1.8943,-0.66748 -0.392576,-0.77599 -0.843016,-1.05502 -1.711325,-1.06008 -0.382363,-0.002 -0.843426,-0.18264 -1.024583,-0.40092 -0.181158,-0.21828 -0.642221,-0.4011 -1.024584,-0.40625 -0.382365,-0.005 -0.992864,-0.17953 -1.356667,-0.3875 -0.363802,-0.20797 -1.163007,-0.38235 -1.776013,-0.3875 -1.64194,-0.0138 -3.758308,-0.90907 -5.339381,-2.25865 -1.207868,-1.03102 -1.555182,-1.19031 -2.595335,-1.19031 -1.149948,0 -1.286561,-0.0877 -3.222766,-2.06864 -2.42602,-2.48208 -3.713265,-3.27567 -6.51338,-4.01548 -1.164167,-0.30758 -2.401483,-0.70101 -2.749591,-0.87427 -0.743788,-0.37022 -1.880618,-2.0676 -1.880618,-2.80792 0,-0.28434 -0.386432,-0.78344 -0.859895,-1.11061 -2.115151,-1.46162 -4.228394,-3.54896 -4.865136,-4.80551 -0.704569,-1.3904 -0.716205,-1.82842 -0.120184,-4.52412 0.410422,-1.85626 0.109312,-3.24584 -0.959764,-4.42918 -0.496245,-0.54928 -1.027129,-1.45197 -1.179741,-2.00596 -0.152612,-0.554 -0.668271,-1.44037 -1.145908,-1.96972 -0.477637,-0.52935 -0.951668,-1.36279 -1.053403,-1.85208 -0.122349,-0.58845 -0.67631,-1.36474 -1.636242,-2.29297 -1.641291,-1.58707 -2.426252,-3.11929 -2.635985,-5.14537 -0.07907,-0.76384 -0.262023,-1.77802 -0.406562,-2.25374 -0.222664,-0.73285 -0.162238,-1.0359 0.395666,-1.98437 1.060195,-1.80241 1.85254,-2.40838 2.922135,-2.23481 1.502601,0.24384 3.887299,-1.22429 4.774085,-2.939142 0.531968,-1.02872 0.540121,-2.87165 0.01823,-4.12071 -0.360551,-0.86293 -0.360551,-1.12649 0,-2.5179 0.221487,-0.85475 0.402704,-1.89737 0.402704,-2.31693 0,-0.94931 0.666367,-1.93891 1.305608,-1.93891 0.265019,0 0.932226,0.18818 1.482682,0.41818 0.866682,0.36212 1.30447,0.37507 3.266161,0.0966 2.214486,-0.31435 2.292217,-0.35025 3.463252,-1.59967 1.538941,-1.64194 4.707511,-3.98286 6.824052,-5.04157 1.643203,-0.82194 1.673701,-0.82633 3.566279,-0.51378 1.66007,0.27415 1.947921,0.26188 2.208247,-0.0941 0.386728,-0.52888 0.359796,-0.53275 2.151399,0.30961 1.547688,0.72767 2.022046,0.7737 5.762529,0.55915 1.079172,-0.0619 1.535669,0.0612 2.477625,0.66831 0.63509,0.40931 1.647121,0.91993 2.248958,1.13473 0.989571,0.35317 1.226455,0.34602 2.476228,-0.0748 1.290928,-0.43466 1.44218,-0.43661 2.295776,-0.0296 0.590905,0.28178 1.245881,0.38187 1.853608,0.28325 0.783047,-0.12707 1.23944,0.0285 2.736146,0.93285 1.501616,0.9073 1.951612,1.06017 2.742732,0.93179 1.028287,-0.16687 1.961835,0.20836 3.826261,1.53793 1.08654,0.77485 5.08356,5.18728 5.58879,6.16965 0.14968,0.29104 0.34318,2.07697 0.43,3.96875 0.17528,3.819332 0.45024,4.929452 1.37025,5.532272 0.34232,0.2243 0.66084,0.67677 0.70781,1.00548 0.047,0.32885 0.4713,0.83755 0.94338,1.131 0.47189,0.29333 0.9275,0.83099 1.01246,1.19479 0.37537,1.60724 2.2938,5.2678 3.70484,7.06921 1.44264,1.84176 3.22917,3.24954 4.12378,3.24954 0.21568,0 0.87899,0.41672 1.47402,0.92604 0.59503,0.50932 1.31008,0.92604 1.58901,0.92604 1.03332,0 2.33991,2.2297 2.55824,4.36563 0.0744,0.7276 0.17006,1.67309 0.21265,2.10108 0.0638,0.64136 -0.0388,0.80613 -0.58402,0.93725 -0.55831,0.13427 -0.6837,0.35076 -0.8041,1.3883 -0.0785,0.67607 -0.3322,1.44494 -0.56389,1.70859 -0.23168,0.26365 -0.80145,1.27564 -1.26614,2.24886 -0.77362,1.62021 -0.84034,1.96623 -0.79076,4.10105 0.0298,1.28234 -0.0947,3.49825 -0.2766,4.92424 -0.31196,2.44546 -0.29889,2.67594 0.23017,4.05843 0.3085,0.80616 0.5609,1.71171 0.5609,2.01233 0,0.57208 -1.26178,1.89327 -3.49098,3.65536 -1.24603,0.98492 -1.41978,1.04263 -3.13918,1.04263 -1.25782,0 -2.45618,0.21294 -3.87885,0.68925 -1.41952,0.47525 -2.68848,0.70115 -4.08715,0.7276 -1.70411,0.0322 -2.16924,0.14246 -2.90894,0.6894 -0.48426,0.35808 -1.41693,0.73377 -2.07259,0.83489 -0.65565,0.10111 -1.43022,0.24996 -1.721266,0.33077 -0.291042,0.0808 -0.826823,0.0214 -1.190625,-0.13201 z M 42.060501,104.6876 c -0.08446,-0.21107 -0.147157,-0.14837 -0.159853,0.15985 -0.01149,0.27892 0.05105,0.43519 0.138965,0.34727 0.08792,-0.0879 0.09732,-0.31612 0.02089,-0.50712 z"
       id="region_reunion" />
  </g>
</svg>
